<mxfile host="65bd71144e">
    <diagram id="D7PgZ63eOd2yUq71c2vs" name="Page-1">
        <mxGraphModel dx="1216" dy="2109" grid="1" gridSize="10" guides="1" tooltips="1" connect="1" arrows="1" fold="1" page="1" pageScale="2" pageWidth="850" pageHeight="1100" math="0" shadow="0">
            <root>
                <mxCell id="0"/>
                <mxCell id="1" parent="0"/>
                <mxCell id="9" style="edgeStyle=none;html=1;exitX=0;exitY=0;exitDx=480;exitDy=170;exitPerimeter=0;dashed=1;strokeColor=#000000;entryX=0.479;entryY=0.065;entryDx=0;entryDy=0;entryPerimeter=0;fontSize=23;strokeWidth=5;" edge="1" parent="1" source="2" target="10">
                    <mxGeometry relative="1" as="geometry">
                        <mxPoint x="800" y="570" as="targetPoint"/>
                        <Array as="points">
                            <mxPoint x="850" y="290"/>
                        </Array>
                    </mxGeometry>
                </mxCell>
                <mxCell id="2" value="Presentation Layer" style="shape=folder;fontStyle=1;tabWidth=230;tabHeight=80;tabPosition=left;html=1;boundedLbl=1;labelInHeader=1;container=1;collapsible=0;fontSize=22;" vertex="1" parent="1">
                    <mxGeometry x="80" y="120" width="480" height="310" as="geometry"/>
                </mxCell>
                <mxCell id="3" value="" style="html=1;strokeColor=none;resizeWidth=1;resizeHeight=1;fillColor=none;part=1;connectable=0;allowArrows=0;deletable=0;" vertex="1" parent="2">
                    <mxGeometry width="480" height="217" relative="1" as="geometry">
                        <mxPoint y="30" as="offset"/>
                    </mxGeometry>
                </mxCell>
                <mxCell id="4" value="" style="shape=folder;fontStyle=1;tabWidth=110;tabHeight=30;tabPosition=left;html=1;boundedLbl=1;labelInHeader=1;container=1;collapsible=0;" vertex="1" parent="2">
                    <mxGeometry x="22.33" y="120" width="187.67" height="116.05" as="geometry"/>
                </mxCell>
                <mxCell id="5" value="User Interface" style="html=1;strokeColor=none;resizeWidth=1;resizeHeight=1;fillColor=none;part=1;connectable=0;allowArrows=0;deletable=0;fontSize=25;" vertex="1" parent="4">
                    <mxGeometry width="187.67" height="81.235" relative="1" as="geometry">
                        <mxPoint y="30" as="offset"/>
                    </mxGeometry>
                </mxCell>
                <mxCell id="6" value="" style="shape=folder;fontStyle=1;tabWidth=110;tabHeight=30;tabPosition=left;html=1;boundedLbl=1;labelInHeader=1;container=1;collapsible=0;" vertex="1" parent="2">
                    <mxGeometry x="260" y="120" width="180" height="116.05" as="geometry"/>
                </mxCell>
                <mxCell id="7" value="API" style="html=1;strokeColor=none;resizeWidth=1;resizeHeight=1;fillColor=none;part=1;connectable=0;allowArrows=0;deletable=0;fontSize=40;" vertex="1" parent="6">
                    <mxGeometry width="180" height="81.235" relative="1" as="geometry">
                        <mxPoint y="30" as="offset"/>
                    </mxGeometry>
                </mxCell>
                <mxCell id="30" style="edgeStyle=none;html=1;exitX=0.25;exitY=1;exitDx=0;exitDy=0;exitPerimeter=0;entryX=0;entryY=0;entryDx=230.00000000000003;entryDy=120;entryPerimeter=0;strokeColor=#000000;strokeWidth=5;dashed=1;" edge="1" parent="1" source="10" target="33">
                    <mxGeometry relative="1" as="geometry">
                        <mxPoint x="430" y="1220" as="targetPoint"/>
                        <Array as="points">
                            <mxPoint x="728" y="1220"/>
                        </Array>
                    </mxGeometry>
                </mxCell>
                <mxCell id="10" value="Business Logic" style="shape=folder;fontStyle=1;tabWidth=220;tabHeight=70;tabPosition=left;html=1;boundedLbl=1;labelInHeader=1;container=1;collapsible=0;fontSize=24;" vertex="1" parent="1">
                    <mxGeometry x="590" y="530" width="550" height="510" as="geometry"/>
                </mxCell>
                <mxCell id="11" value="" style="html=1;strokeColor=none;resizeWidth=1;resizeHeight=1;fillColor=none;part=1;connectable=0;allowArrows=0;deletable=0;fontSize=20;" vertex="1" parent="10">
                    <mxGeometry width="550" height="357.00000000000006" relative="1" as="geometry">
                        <mxPoint y="30" as="offset"/>
                    </mxGeometry>
                </mxCell>
                <mxCell id="20" style="edgeStyle=none;html=1;exitX=0.5;exitY=1;exitDx=0;exitDy=0;exitPerimeter=0;entryX=0;entryY=0;entryDx=0;entryDy=155;entryPerimeter=0;strokeColor=#000000;strokeWidth=2;" edge="1" parent="10" source="12" target="14">
                    <mxGeometry relative="1" as="geometry">
                        <Array as="points">
                            <mxPoint x="230" y="375"/>
                        </Array>
                    </mxGeometry>
                </mxCell>
                <mxCell id="12" value="" style="shape=folder;fontStyle=1;tabWidth=110;tabHeight=30;tabPosition=left;html=1;boundedLbl=1;labelInHeader=1;container=1;collapsible=0;" vertex="1" parent="10">
                    <mxGeometry x="150.00312499999995" y="90" width="169.2052083333333" height="100" as="geometry"/>
                </mxCell>
                <mxCell id="13" value="Facade" style="html=1;strokeColor=none;resizeWidth=1;resizeHeight=1;fillColor=none;part=1;connectable=0;allowArrows=0;deletable=0;fontSize=25;" vertex="1" parent="12">
                    <mxGeometry width="169.2052083333333" height="70" relative="1" as="geometry">
                        <mxPoint y="30" as="offset"/>
                    </mxGeometry>
                </mxCell>
                <mxCell id="14" value="Busiines Logic" style="shape=folder;fontStyle=1;tabWidth=160;tabHeight=50;tabPosition=left;html=1;boundedLbl=1;labelInHeader=1;container=1;collapsible=0;fontSize=17;" vertex="1" parent="10">
                    <mxGeometry x="260" y="220" width="270" height="260" as="geometry"/>
                </mxCell>
                <mxCell id="15" value="" style="html=1;strokeColor=none;resizeWidth=1;resizeHeight=1;fillColor=none;part=1;connectable=0;allowArrows=0;deletable=0;fontSize=17;" vertex="1" parent="14">
                    <mxGeometry width="270" height="182" relative="1" as="geometry">
                        <mxPoint y="30" as="offset"/>
                    </mxGeometry>
                </mxCell>
                <mxCell id="21" value="" style="shape=folder;fontStyle=1;tabWidth=30;tabHeight=10;tabPosition=left;html=1;boundedLbl=1;labelInHeader=1;container=1;collapsible=0;" vertex="1" parent="14">
                    <mxGeometry x="150" y="179.2330891856958" width="105" height="67.21240844463594" as="geometry"/>
                </mxCell>
                <mxCell id="22" value="Amenities" style="html=1;strokeColor=none;resizeWidth=1;resizeHeight=1;fillColor=none;part=1;connectable=0;allowArrows=0;deletable=0;fontSize=20;" vertex="1" parent="21">
                    <mxGeometry width="105" height="50.40930633347695" relative="1" as="geometry">
                        <mxPoint y="10" as="offset"/>
                    </mxGeometry>
                </mxCell>
                <mxCell id="23" value="" style="shape=folder;fontStyle=1;tabWidth=30;tabHeight=10;tabPosition=left;html=1;boundedLbl=1;labelInHeader=1;container=1;collapsible=0;fontSize=15;" vertex="1" parent="14">
                    <mxGeometry x="15" y="179.2330891856958" width="105" height="67.21240844463594" as="geometry"/>
                </mxCell>
                <mxCell id="24" value="Users" style="html=1;strokeColor=none;resizeWidth=1;resizeHeight=1;fillColor=none;part=1;connectable=0;allowArrows=0;deletable=0;fontSize=27;" vertex="1" parent="23">
                    <mxGeometry width="105" height="50.40930633347695" relative="1" as="geometry">
                        <mxPoint y="10" as="offset"/>
                    </mxGeometry>
                </mxCell>
                <mxCell id="25" value="" style="shape=folder;fontStyle=1;tabWidth=30;tabHeight=10;tabPosition=left;html=1;boundedLbl=1;labelInHeader=1;container=1;collapsible=0;" vertex="1" parent="14">
                    <mxGeometry x="150" y="70.0025937096079" width="105" height="67.21240844463594" as="geometry"/>
                </mxCell>
                <mxCell id="26" value="Reviews" style="html=1;strokeColor=none;resizeWidth=1;resizeHeight=1;fillColor=none;part=1;connectable=0;allowArrows=0;deletable=0;fontSize=24;" vertex="1" parent="25">
                    <mxGeometry width="105" height="50.40930633347695" relative="1" as="geometry">
                        <mxPoint y="10" as="offset"/>
                    </mxGeometry>
                </mxCell>
                <mxCell id="27" value="" style="shape=folder;fontStyle=1;tabWidth=30;tabHeight=10;tabPosition=left;html=1;boundedLbl=1;labelInHeader=1;container=1;collapsible=0;fontSize=15;" vertex="1" parent="14">
                    <mxGeometry x="15" y="70.0025937096079" width="105" height="67.21240844463594" as="geometry"/>
                </mxCell>
                <mxCell id="28" value="Places" style="html=1;strokeColor=none;resizeWidth=1;resizeHeight=1;fillColor=none;part=1;connectable=0;allowArrows=0;deletable=0;fontSize=25;" vertex="1" parent="27">
                    <mxGeometry width="105" height="50.40930633347695" relative="1" as="geometry">
                        <mxPoint y="10" as="offset"/>
                    </mxGeometry>
                </mxCell>
                <mxCell id="17" value="" style="shape=folder;fontStyle=1;tabWidth=110;tabHeight=30;tabPosition=left;html=1;boundedLbl=1;labelInHeader=1;container=1;collapsible=0;fontSize=19;" vertex="1" parent="1">
                    <mxGeometry x="608.5" y="770" width="147.67" height="86.05" as="geometry"/>
                </mxCell>
                <mxCell id="18" value="Core Logic" style="html=1;strokeColor=none;resizeWidth=1;resizeHeight=1;fillColor=none;part=1;connectable=0;allowArrows=0;deletable=0;fontSize=19;" vertex="1" parent="17">
                    <mxGeometry width="147.67" height="60.23499999999999" relative="1" as="geometry">
                        <mxPoint y="30" as="offset"/>
                    </mxGeometry>
                </mxCell>
                <mxCell id="19" style="edgeStyle=none;html=1;exitX=0.25;exitY=1;exitDx=0;exitDy=0;exitPerimeter=0;entryX=0;entryY=0;entryDx=147.67;entryDy=58.025;entryPerimeter=0;strokeColor=#000000;strokeWidth=2;" edge="1" parent="1" source="12" target="17">
                    <mxGeometry relative="1" as="geometry">
                        <Array as="points">
                            <mxPoint x="782" y="830"/>
                        </Array>
                    </mxGeometry>
                </mxCell>
                <mxCell id="33" value="Persistence" style="shape=folder;fontStyle=1;tabWidth=150;tabHeight=60;tabPosition=left;html=1;boundedLbl=1;labelInHeader=1;container=1;collapsible=0;fontSize=24;" vertex="1" parent="1">
                    <mxGeometry x="170" y="1100" width="230" height="180" as="geometry"/>
                </mxCell>
                <mxCell id="34" value="db" style="html=1;strokeColor=none;resizeWidth=1;resizeHeight=1;fillColor=none;part=1;connectable=0;allowArrows=0;deletable=0;fontSize=33;" vertex="1" parent="33">
                    <mxGeometry width="230" height="110" relative="1" as="geometry">
                        <mxPoint y="70" as="offset"/>
                    </mxGeometry>
                </mxCell>
            </root>
        </mxGraphModel>
    </diagram>
</mxfile>